<svg xmlns="http://www.w3.org/2000/svg" xmlns:xlink="http://www.w3.org/1999/xlink" version="1.1" id="Layer_1" x="0px" y="0px" width="49.138px" height="49.138px" viewBox="275.747 178.53 49.138 49.138" enable-background="new 275.747 178.53 49.138 49.138" xml:space="preserve">
<path d="M280.949,204.494h-5.202v-2.791h5.202c-0.033,0.463-0.07,0.924-0.07,1.396C280.879,203.57,280.916,204.031,280.949,204.494z   M287.605,188.415l-3.676-3.676l-1.975,1.975l3.676,3.676C286.242,189.685,286.901,189.025,287.605,188.415z M315,190.388  l3.676-3.676l-1.975-1.974l-3.676,3.675C313.73,189.024,314.391,189.683,315,190.388z M313.025,217.783l3.676,3.676l1.975-1.975  L315,215.809C314.391,216.514,313.73,217.173,313.025,217.783z M285.632,215.809l-3.676,3.676l1.974,1.975l3.676-3.676  C286.901,217.172,286.242,216.514,285.632,215.809z M319.684,201.703c0.033,0.463,0.07,0.924,0.07,1.396  c0,0.471-0.037,0.933-0.07,1.396h5.201v-2.791L319.684,201.703L319.684,201.703z M308.738,218.35  c1.967-1.85,2.951-4.386,2.951-7.608c0-1.323-0.146-2.511-0.433-3.562c-0.288-1.052-0.771-2.003-1.45-2.852  c-0.68-0.848-1.57-1.604-2.673-2.266c-1.104-0.66-2.485-1.246-4.147-1.755c-0.984-0.305-1.916-0.619-2.799-0.941  c-0.883-0.322-1.647-0.687-2.29-1.095c-0.644-0.407-1.153-0.874-1.526-1.4c-0.375-0.525-0.56-1.145-0.56-1.857  c0-1.255,0.406-2.299,1.22-3.13c0.814-0.832,1.986-1.247,3.513-1.247c1.288,0,2.426,0.254,3.41,0.763  c0.983,0.509,1.864,1.307,2.646,2.393l4.428-3.716c-0.984-1.526-2.299-2.73-3.943-3.613c-1.646-0.883-3.792-1.324-6.438-1.324  c-1.628,0-3.098,0.246-4.401,0.739c-1.307,0.493-2.436,1.19-3.386,2.09c-0.95,0.901-1.68,1.972-2.188,3.212  c-0.509,1.24-0.765,2.591-0.765,4.052c0,1.326,0.17,2.507,0.51,3.544c0.339,1.037,0.891,1.956,1.654,2.752  c0.763,0.799,1.738,1.505,2.927,2.115c1.187,0.611,2.629,1.189,4.325,1.732c0.917,0.271,1.765,0.562,2.545,0.866  c0.779,0.307,1.441,0.672,1.984,1.097c0.543,0.426,0.967,0.928,1.272,1.504c0.306,0.578,0.458,1.275,0.458,2.09  c0,1.326-0.382,2.439-1.146,3.34c-0.764,0.901-2.078,1.353-3.943,1.353c-1.562,0-2.885-0.364-3.97-1.096  c-1.086-0.729-2.019-1.704-2.8-2.927l-4.783,3.461c1.051,1.785,2.51,3.242,4.377,4.367c1.865,1.127,4.225,1.689,7.074,1.689  C303.986,221.123,306.771,220.199,308.738,218.35z M299.079,206.141c-0.055-0.018-0.104-0.035-0.159-0.054v8.567  c0.493,0.104,1.011,0.173,1.573,0.173c0.446,0,0.848-0.034,1.219-0.091v-7.684c-0.048-0.021-0.087-0.044-0.136-0.062  C300.805,206.689,299.97,206.404,299.079,206.141z M301.712,199.052v-7.52c-0.374-0.056-0.76-0.095-1.168-0.095  c-0.62,0-1.155,0.08-1.624,0.228v6.256c0.463,0.247,0.965,0.483,1.542,0.693C300.866,198.762,301.285,198.908,301.712,199.052z   M300.646,184.34c0.371,0,0.711,0.031,1.065,0.048v-5.858h-2.792v5.917C299.479,184.384,300.05,184.34,300.646,184.34z   M300.392,221.923c-0.506,0-0.993-0.024-1.472-0.059v5.804h2.792v-5.79C301.283,221.906,300.844,221.923,300.392,221.923z"/>
</svg>