<svg xmlns="http://www.w3.org/2000/svg" xmlns:xlink="http://www.w3.org/1999/xlink" version="1.1" x="0px" y="0px" width="100.0px" height="100px" viewBox="0 0 282.807 282.789" enable-background="new 0 0 282.807 282.789" xml:space="preserve">
<g id="Layer_1">
	<path fill="#000000" d="M209.129,122.838"/>
	<path fill="#000000" d="M72.039,159.271v0.004c-2.903,0-5.276-2.374-5.276-5.276v-23.317c0-2.901,0.047-7.652,0.107-10.551   c0,0,0.423-20.656-16.502-29.542c-7.887-4.142-14.766-4.419-14.766-4.419c-2.9-0.118-5.274-2.587-5.274-5.491V32.261   c0-2.903,2.375-5.276,5.276-5.276h211.654c2.901,0,5.275,2.373,5.275,5.276v48.417c0,2.903-2.374,5.373-5.273,5.491   c0,0-6.88,0.278-14.766,4.419c-16.926,8.886-16.502,29.542-16.502,29.542c0.06,2.899,0.106,7.65,0.106,10.551v23.317   c0,2.902-2.372,5.276-5.275,5.276v-0.004H72.039z"/>
	<path fill="#000000" d="M55.728,48.245"/>
	<path fill="#000000" d="M58.333,276.485V127.238c0,0,1.589-22.229-14.29-29.374c-15.878-7.143-24.412-2.778-25.801-1.885   c-1.389,0.895-10.319,4.765-13.991,13.595c-3.672,8.832-2.281,10.221-1.885,15.977c0.396,5.755,4.069,11.115,5.062,12.009   c0.993,0.891,10.221,14.29,12.204,16.373c1.983,2.084,8.434,15.381,8.434,17.565c0,2.182,0,104.989,0,104.989   s0.497,4.367,14.39,4.367C56.345,280.855,58.333,276.485,58.333,276.485z"/>
	<g>
		<path fill="#000000" d="M226.052,204.766"/>
	</g>
	<path fill="#000000" d="M72.039,204.766c-2.903,0-5.276-2.372-5.276-5.275v-27.024c0-2.901,2.373-5.276,5.276-5.276h138.785   c2.903,0,5.275,2.375,5.275,5.276v27.024c0,2.903-2.372,5.275-5.275,5.275H72.039z"/>
	<path fill="#000000" d="M66.293,219.894"/>
	<path fill="#000000" d="M71.89,264.286c-2.859,0-5.192-2.374-5.187-5.277l0.072-41.049c0.005-2.901,2.349-5.275,5.207-5.275   h138.899c2.857,0,5.201,2.374,5.206,5.275l0.072,41.049c0.006,2.903-2.328,5.277-5.187,5.277H71.89z"/>
	<path fill="#000000" d="M240.409,280.855c13.893,0,14.391-4.367,14.391-4.367s0-102.808,0-104.989   c0-2.185,6.451-15.481,8.433-17.565c1.985-2.083,11.214-15.481,12.206-16.373c0.992-0.895,4.665-6.254,5.062-12.009   c0.396-5.756,1.785-7.145-1.888-15.977c-3.672-8.83-12.602-12.701-13.991-13.595c-1.389-0.893-9.923-5.257-25.801,1.885   c-15.878,7.145-14.289,29.374-14.289,29.374v149.247C224.531,276.485,226.518,280.855,240.409,280.855z"/>
	<path fill="#000000" d="M207.262,219.894"/>
</g>
<g id="Layer_2">
</g>
</svg>